<?xml version="1.0" encoding="UTF-8" standalone="no"?>
<svg
   xmlns:dc="http://purl.org/dc/elements/1.1/"
   xmlns:cc="http://creativecommons.org/ns#"
   xmlns:rdf="http://www.w3.org/1999/02/22-rdf-syntax-ns#"
   xmlns:svg="http://www.w3.org/2000/svg"
   xmlns="http://www.w3.org/2000/svg"
   xmlns:sodipodi="http://sodipodi.sourceforge.net/DTD/sodipodi-0.dtd"
   xmlns:inkscape="http://www.inkscape.org/namespaces/inkscape"
   inkscape:version="1.0 (4035a4fb49, 2020-05-01)"
   sodipodi:docname="icons.svg"
   viewBox="0 0 24 24"
   version="1.1"
   height="24"
   width="24"
   id="icons">
  <metadata
     id="metadata23">
    <rdf:RDF>
      <cc:Work
         rdf:about="">
        <dc:format>image/svg+xml</dc:format>
        <dc:type
           rdf:resource="http://purl.org/dc/dcmitype/StillImage" />
        <dc:title></dc:title>
      </cc:Work>
    </rdf:RDF>
  </metadata>
  <defs />
  <sodipodi:namedview
     inkscape:document-rotation="0"
     inkscape:pagecheckerboard="true"
     inkscape:current-layer="icons"
     inkscape:window-maximized="1"
     inkscape:window-y="0"
     inkscape:window-x="0"
     inkscape:cy="11.970859"
     inkscape:cx="20.007207"
     inkscape:zoom="24.579195"
     showgrid="false"
     id="namedview19"
     inkscape:window-height="1005"
     inkscape:window-width="1920"
     inkscape:pageshadow="2"
     inkscape:pageopacity="0"
     guidetolerance="10"
     gridtolerance="10"
     objecttolerance="10"
     borderopacity="1"
     bordercolor="#666666"
     pagecolor="#ffffff" />
  <path
     id="edit"
     d="m 2.9987498,17.25125 v 3.75 H 6.7487502 L 17.80875,9.9412502 14.05875,6.1912498 Z M 20.70875,7.0412498 c 0.39,-0.39 0.39,-1.02 0,-1.41 l -2.34,-2.34 c -0.39,-0.39 -1.02,-0.39 -1.41,0 l -1.83,1.83 3.75,3.7500004 z"
     inkscape:connector-curvature="0" />
  <path
     style="stroke-width:1.11111116"
     id="trash"
     d="M 5.3333337,19.777778 C 5.3333337,21 6.3333337,22 7.5555559,22 h 8.8888881 c 1.222222,0 2.222222,-1 2.222222,-2.222222 V 6.4444446 H 5.3333337 Z M 19.777777,3.1111111 H 15.888889 L 14.777777,2 H 9.2222225 L 8.1111114,3.1111111 H 4.2222225 V 5.3333334 H 19.777777 Z"
     inkscape:connector-curvature="0" />
  <path
     d="M 8.3636364,16.431818 3.5909091,11.659091 2,13.25 8.3636364,19.613637 22,5.9772726 20.409091,4.3863635 Z"
     id="done" />
  <path
     style="stroke-width:1.14285"
     d="M 20,5.6114286 18.388571,4 12,10.388571 5.6114286,4 4,5.6114286 10.388571,12 4,18.388571 5.6114286,20 12,13.611429 18.388571,20 20,18.388571 13.611429,12 Z"
     id="close" />
  <path
     d="m 6,10 c -1.1,0 -2,0.9 -2,2 0,1.1 0.9,2 2,2 1.1,0 2,-0.9 2,-2 0,-1.1 -0.9,-2 -2,-2 z m 12,0 c -1.1,0 -2,0.9 -2,2 0,1.1 0.9,2 2,2 1.1,0 2,-0.9 2,-2 0,-1.1 -0.9,-2 -2,-2 z m -6,0 c -1.1,0 -2,0.9 -2,2 0,1.1 0.9,2 2,2 1.1,0 2,-0.9 2,-2 0,-1.1 -0.9,-2 -2,-2 z"
     id="more" />
</svg>
