<?xml version="1.0" encoding="UTF-8" standalone="no"?>
<svg
   xmlns:dc="http://purl.org/dc/elements/1.1/"
   xmlns:cc="http://creativecommons.org/ns#"
   xmlns:rdf="http://www.w3.org/1999/02/22-rdf-syntax-ns#"
   xmlns:svg="http://www.w3.org/2000/svg"
   xmlns="http://www.w3.org/2000/svg"
   xmlns:sodipodi="http://sodipodi.sourceforge.net/DTD/sodipodi-0.dtd"
   xmlns:inkscape="http://www.inkscape.org/namespaces/inkscape"
   id="icons"
   width="24"
   height="24"
   version="1.1"
   viewBox="0 0 24 24"
   sodipodi:docname="icons.svg"
   inkscape:version="1.0 (4035a4fb49, 2020-05-01)">
  <path
     d="M 21.730769,1.0000002 V 14.538462 H 20.038461 V 2.6923079 H 9.8846155 V 1.0000002 Z M 18.346153,4.3846156 V 17.923077 H 16.653846 V 6.0769234 H 6.4999995 V 4.3846156 Z M 14.961539,7.7692311 V 23 H 2.2692305 V 7.7692311 Z M 13.26923,9.4615385 H 3.9615385 V 21.307693 H 13.26923 Z"
     id="series" />
  <metadata
     id="metadata23">
    <rdf:RDF>
      <cc:Work
         rdf:about="">
        <dc:format>image/svg+xml</dc:format>
        <dc:type
           rdf:resource="http://purl.org/dc/dcmitype/StillImage" />
        <dc:title />
      </cc:Work>
    </rdf:RDF>
  </metadata>
  <defs
     id="defs891" />
  <sodipodi:namedview
     pagecolor="#ffffff"
     bordercolor="#666666"
     borderopacity="1"
     objecttolerance="10"
     gridtolerance="10"
     guidetolerance="10"
     inkscape:pageopacity="0"
     inkscape:pageshadow="2"
     inkscape:window-width="1920"
     inkscape:window-height="1005"
     id="namedview19"
     showgrid="false"
     inkscape:zoom="17.380115"
     inkscape:cx="20.007207"
     inkscape:cy="11.970859"
     inkscape:window-x="0"
     inkscape:window-y="0"
     inkscape:window-maximized="1"
     inkscape:current-layer="icons"
     inkscape:pagecheckerboard="true"
     inkscape:document-rotation="0" />
  <path
     inkscape:connector-curvature="0"
     d="m 2.9987498,17.25125 v 3.75 H 6.7487502 L 17.80875,9.9412502 14.05875,6.1912498 Z M 20.70875,7.0412498 c 0.39,-0.39 0.39,-1.02 0,-1.41 l -2.34,-2.34 c -0.39,-0.39 -1.02,-0.39 -1.41,0 l -1.83,1.83 3.75,3.7500004 z"
     id="edit" />
  <path
     inkscape:connector-curvature="0"
     d="M 5.3333337,19.777778 C 5.3333337,21 6.3333337,22 7.5555559,22 h 8.8888881 c 1.222222,0 2.222222,-1 2.222222,-2.222222 V 6.4444446 H 5.3333337 Z M 19.777777,3.1111111 H 15.888889 L 14.777777,2 H 9.2222225 L 8.1111114,3.1111111 H 4.2222225 V 5.3333334 H 19.777777 Z"
     id="trash"
     style="stroke-width:1.11111116" />
  <path
     id="done"
     d="M 8.3636364,16.431818 3.5909091,11.659091 2,13.25 8.3636364,19.613637 22,5.9772726 20.409091,4.3863635 Z" />
  <path
     id="close"
     d="M 20,5.6114286 18.388571,4 12,10.388571 5.6114286,4 4,5.6114286 10.388571,12 4,18.388571 5.6114286,20 12,13.611429 18.388571,20 20,18.388571 13.611429,12 Z"
     style="stroke-width:1.14285" />
  <path
     id="more"
     d="m 6,10 c -1.1,0 -2,0.9 -2,2 0,1.1 0.9,2 2,2 1.1,0 2,-0.9 2,-2 0,-1.1 -0.9,-2 -2,-2 z m 12,0 c -1.1,0 -2,0.9 -2,2 0,1.1 0.9,2 2,2 1.1,0 2,-0.9 2,-2 0,-1.1 -0.9,-2 -2,-2 z m -6,0 c -1.1,0 -2,0.9 -2,2 0,1.1 0.9,2 2,2 1.1,0 2,-0.9 2,-2 0,-1.1 -0.9,-2 -2,-2 z" />
  <path
     d="m 18.175,4.3499996 -2.350001,-2.35 L 5.8249997,11.999999 15.824999,22 18.175,19.65 10.541666,11.999999 Z"
     id="prev" />
  <path
     d="m 8.1749998,1.9999996 -2.3499997,2.35 L 13.458334,11.999999 5.8250001,19.65 8.1749998,22 18.175,11.999999 Z"
     id="next" />
  <path
     d="M 12,17.27 18.18,21 16.54,13.97 22,9.24 14.81,8.63 12,2 9.19,8.63 2,9.24 7.46,13.97 5.82,21 Z"
     id="star" />
  <path
     style="stroke-width:1"
     d="M 12,12 C 14.7625,12 17,9.7625 17,7 17,4.2375 14.7625,2 12,2 9.2375,2 7,4.2375 7,7 c 0,2.7625 2.2375,5 5,5 z m 0,2.5 c -3.3375,0 -10,1.675 -10,5 V 22 h 20 v -2.5 c 0,-3.325 -6.6625,-5 -10,-5 z"
     id="person" />
  <path
     style="stroke-width:1"
     d="m 2.8839037,22.959348 c -0.8776731,-0.240775 -1.5805815,-0.950382 -1.814954,-1.832246 -0.089758,-0.337594 -0.092948,-4.353749 -0.0033,-4.688704 0.2535232,-0.952185 1.0685524,-1.72316 1.972933,-1.866268 0.1513901,-0.02398 0.413702,-0.06512 0.5829228,-0.09141 L 3.9291695,14.43287 3.802078,14.295626 C 3.4175474,13.880398 3.4821382,13.262364 3.9426993,12.950201 l 0.1909893,-0.129457 1.4670857,-0.01408 1.4670968,-0.01408 0.3020431,-0.520048 C 7.536044,11.986519 7.8418601,11.491617 8.0495251,11.172755 L 8.4270819,10.593 v -0.36175 c 0,-1.5791401 0.6239959,-3.3752405 1.6338101,-4.7027169 C 10.33582,5.1671131 11.147693,4.339984 11.530243,4.03155 13.446648,2.4864867 16.150979,1.5264802 19.646019,1.1505625 20.48428,1.0603645 22.94678,0.94008151 22.993694,0.98699561 23.067394,1.0606946 22.4793,2.6040745 22.053355,3.4547321 21.268114,5.0229718 20.097439,6.5975365 19.06787,7.4702707 l -0.254524,0.2157498 -1.190991,0.0132 c -0.655049,0.0077 -1.549397,-0.0066 -1.987442,-0.030579 -0.438055,-0.02409 -0.80382,-0.036409 -0.812818,-0.027389 -0.03344,0.033439 0.630827,0.3218758 1.038501,0.4509583 0.432841,0.1370464 1.39507,0.361926 1.778952,0.415759 0.118665,0.01661 0.239795,0.043009 0.269186,0.058629 0.0715,0.038059 -0.382583,0.3976203 -1.067452,0.8453994 -1.80963,1.1831808 -3.633648,1.8397908 -5.296629,1.9066918 -0.361915,0.01452 -0.65804,0.01353 -0.65804,-0.0022 0,-0.05082 0.568425,-0.938799 0.928965,-1.4512678 0.971589,-1.3810009 2.268772,-2.9274171 3.579496,-4.2672462 0.403824,-0.4128001 0.685694,-0.725832 0.626361,-0.6956376 -0.225001,0.1144968 -1.164713,0.7665202 -1.682836,1.1676385 -1.570066,1.2154875 -3.019816,2.7143737 -4.3954602,4.5444301 -0.255437,0.339805 -1.1334623,1.65714 -1.3197217,1.980039 l -0.1182367,0.204959 1.3741044,2.53e-4 c 0.7873762,1.32e-4 1.4407632,0.0187 1.5302032,0.04356 0.389139,0.108128 0.642167,0.435008 0.642167,0.829681 0,0.257967 -0.07689,0.448109 -0.252225,0.623413 l -0.135099,0.135099 0.312328,0.04862 c 0.171772,0.02673 0.438539,0.0682 0.5928,0.09218 0.670624,0.103948 1.403925,0.641772 1.734271,1.271851 0.313736,0.598399 0.315342,0.613348 0.315342,2.93152 0,1.84483 -0.0088,2.101257 -0.07601,2.346299 -0.188239,0.681316 -0.676201,1.303816 -1.261631,1.609456 -0.593945,0.310084 -0.306719,0.294926 -5.5078255,0.290637 -3.7970169,-0.0033 -4.7156642,-0.01485 -4.8892188,-0.06248 z"
     id="genres" />
</svg>
